<?xml version="1.0" encoding="UTF-8" standalone="no"?>
<!DOCTYPE svg PUBLIC "-//W3C//DTD SVG 1.1//EN"
 "http://www.w3.org/Graphics/SVG/1.1/DTD/svg11.dtd">
<!-- Generated by graphviz version 2.50.0 (20211204.2007)
 -->
<!-- Title: FaustModule Pages: 1 -->
<svg width="128pt" height="84pt"
 viewBox="0.00 0.00 128.00 84.00" xmlns="http://www.w3.org/2000/svg" xmlns:xlink="http://www.w3.org/1999/xlink">
<g id="graph0" class="graph" transform="scale(1 1) rotate(0) translate(4 80)">
<title>FaustModule</title>
<!-- Node1 -->
<g id="node1" class="node">
<title>Node1</title>
<g id="a_node1"><a xlink:title="Abstract class for Faust modules, taking care of common functions such as standard Faust API.">
<polygon fill="#bfbfbf" stroke="black" points="25,-56.5 25,-75.5 98,-75.5 98,-56.5 25,-56.5"/>
<text text-anchor="middle" x="61.5" y="-63.5" font-family="Helvetica,sans-Serif" font-size="10.00">FaustModule</text>
</a>
</g>
</g>
<!-- Node2 -->
<g id="node2" class="node">
<title>Node2</title>
<g id="a_node2"><a xlink:href="classFreeverb.html" target="_top" xlink:title="Freeverb is a Schroeder reverb by Jezar at Dreampoint used extensively in free software.">
<polygon fill="none" stroke="black" points="0,-0.5 0,-19.5 55,-19.5 55,-0.5 0,-0.5"/>
<text text-anchor="middle" x="27.5" y="-7.5" font-family="Helvetica,sans-Serif" font-size="10.00">Freeverb</text>
</a>
</g>
</g>
<!-- Node1&#45;&gt;Node2 -->
<g id="edge1" class="edge">
<title>Node1&#45;&gt;Node2</title>
<path fill="none" stroke="midnightblue" d="M50.52,-47.57C44.67,-38.27 37.73,-27.25 33.01,-19.75"/>
<polygon fill="midnightblue" stroke="midnightblue" points="47.6,-49.49 55.89,-56.08 53.52,-45.76 47.6,-49.49"/>
</g>
<!-- Node3 -->
<g id="node3" class="node">
<title>Node3</title>
<g id="a_node3"><a xlink:href="classZitarev.html" target="_top" xlink:title="Zitarev is a rich Schroeder/FDN reverb developed by Fons Adriaensen.">
<polygon fill="none" stroke="black" points="73,-0.5 73,-19.5 120,-19.5 120,-0.5 73,-0.5"/>
<text text-anchor="middle" x="96.5" y="-7.5" font-family="Helvetica,sans-Serif" font-size="10.00">Zitarev</text>
</a>
</g>
</g>
<!-- Node1&#45;&gt;Node3 -->
<g id="edge2" class="edge">
<title>Node1&#45;&gt;Node3</title>
<path fill="none" stroke="midnightblue" d="M72.8,-47.57C78.82,-38.27 85.97,-27.25 90.83,-19.75"/>
<polygon fill="midnightblue" stroke="midnightblue" points="69.78,-45.79 67.28,-56.08 75.66,-49.6 69.78,-45.79"/>
</g>
</g>
</svg>
